# xmcd
#
# Track frame offsets:
#	150
#	5699
#	22783
#	30877
#	34867
#	38374
#	44066
#	50031
#
# Disc length: 737 seconds
#
# Revision: 1
# Processed by: cddbd v1.5.2PL0 Copyright (c) Steve Scherf et al.
# Submitted via: audiograbber 1.83.01
#
DISCID=5602df08
DTITLE=Various Artist - Volkslieder
DYEAR=2011
DGENRE=Folklore
TTITLE0=Nagy - Ruf - Es kappert die Mühle
TTITLE1=Mammel - Freimuth - Das Wandern ist des Müllers Lust
TTITLE2=Rubens - Föll - Komm lieber Mai, und mache
TTITLE3=Moll - Irmer - O, Du lieber Augustin
TTITLE4=Mit-Sing Fassung - Es klappert die Mühle
TTITLE5=Mit-Sing Fassung - Das Wandern ist des Mühlers Lust
TTITLE6=Mit-Sing Fassung - Komm lieber Mai, und mache
TTITLE7=Mit-Sing Fassung - O, Du lieber Augustin
EXTD=
EXTT0=
EXTT1=
EXTT2=
EXTT3=
EXTT4=
EXTT5=
EXTT6=
EXTT7=
PLAYORDER=
